<svg xmlns="http://www.w3.org/2000/svg" xmlns:xlink="http://www.w3.org/1999/xlink" id="Layer_1" x="0px" y="0px" viewBox="0 0 500 500" style="enable-background:new 0 0 500 500;" xml:space="preserve"><style type="text/css">	.st0{fill:#00B3B0;}	.st1{fill:#FFFFFF;}</style><g>	<path class="st0" d="M60.2,0C48,0,38.3,9.7,38.3,21.4v383c0,11.7,9.7,19,21.4,19h56.5V500l70.2-76h256.3c11.7,0,19-7.3,19-19.5  V21.9c0-11.7-6.8-21.9-19-21.9H60.2z"/>	<path class="st1" d="M312.5,76.6c9.7,0,18,1.9,25.8,6.3c7.3,3.9,14.1,9.3,19.5,15.6c10.9,13.3,16.8,30,16.6,47.2  c0,12.7-3.4,24.8-9.7,36.5c-6.6,11.8-16.8,21-29.2,26.3c15.6,4.4,27.8,12.2,37,23.4c8.8,11.7,13.1,26.8,13.1,45.8  c0,12.2-2.2,23-6.8,31.2c-4.9,8.8-12.2,16.1-20.9,21.4c-9.3,5.8-19.5,11.2-31.2,13.6c-11.7,2.9-24.3,5.4-37.5,5.4H116.8V76.6H312.5  z M284.6,229H187V275h95.2c5.6,0,10.8-2.3,15-6c3.8-3.7,6.1-9.2,6.1-16.1c0.1-5.9-1.7-11.7-5.2-16.6  C294.4,231.7,290.2,229,284.6,229z M276.6,136.8H187v41.5h87.7c4.7,0,9.4-2.3,13.1-5.1c4.2-2.8,6.1-8.8,6.1-16.6  c0-6.9-1.9-12-5.2-15.2C285.5,138.7,281.3,136.8,276.6,136.8z"/></g></svg>