<svg width="492" height="362.005" viewBox="0 0 492 362.005" xmlns="http://www.w3.org/2000/svg"><g id="svgGroup" stroke-linecap="round" fill-rule="evenodd" font-size="9pt" stroke="#000" stroke-width="0.25mm" fill="#000" style="stroke:#000;stroke-width:0.25mm;fill:#000"><path d="M 484.5 18.001 L 470 58.001 Q 454.5 50.501 438.25 46.001 A 115.074 115.074 0 0 0 422.931 42.925 Q 415.014 41.857 406.074 41.59 A 203.528 203.528 0 0 0 400 41.501 A 105.864 105.864 0 0 0 360.477 48.777 A 99.903 99.903 0 0 0 342.75 58.001 A 105.834 105.834 0 0 0 310.922 90.907 A 134.889 134.889 0 0 0 303 105.501 Q 289.633 134.079 288.589 173.705 A 257.963 257.963 0 0 0 288.5 180.501 A 209.314 209.314 0 0 0 291.579 217.279 A 154.646 154.646 0 0 0 302.75 254.001 A 128.386 128.386 0 0 0 320.682 283.142 A 107.115 107.115 0 0 0 342.25 303.001 Q 367.5 320.501 400 320.501 Q 421.88 320.501 438.576 315.715 A 96.401 96.401 0 0 0 442.5 314.501 Q 460.5 308.501 477.5 299.001 L 492 338.501 A 187.805 187.805 0 0 1 469.526 348.722 A 239.47 239.47 0 0 1 449.75 355.251 Q 427.531 361.566 398.528 361.973 A 287.083 287.083 0 0 1 394.5 362.001 Q 349 362.001 314 340.251 A 143.002 143.002 0 0 1 264.617 288.024 A 174.58 174.58 0 0 1 259.5 278.251 A 188.055 188.055 0 0 1 244.004 229.666 Q 240.125 208.337 240.004 184.069 A 314.082 314.082 0 0 1 240 182.501 Q 240 129.001 259.75 87.751 A 158.177 158.177 0 0 1 294.644 39.596 A 149.302 149.302 0 0 1 315.75 23.251 A 146.855 146.855 0 0 1 379.152 1.194 A 186.459 186.459 0 0 1 400.5 0.001 Q 425.5 0.001 446 4.751 A 191.12 191.12 0 0 1 483.373 17.473 A 178.04 178.04 0 0 1 484.5 18.001 Z M 0 333.001 L 23 296.501 A 84.292 84.292 0 0 0 43.352 312.08 A 97.151 97.151 0 0 0 47 314.001 Q 61 321.001 75.5 321.001 A 53.703 53.703 0 0 0 93.037 318.262 A 44.682 44.682 0 0 0 113.5 303.751 A 49.745 49.745 0 0 0 121.326 289.481 Q 126.407 275.693 127.307 254.811 A 216.542 216.542 0 0 0 127.5 245.501 L 127.5 6.001 L 175 6.001 L 175 240.501 Q 175 303.594 148.345 332.628 A 72.692 72.692 0 0 1 148 333.001 A 89.649 89.649 0 0 1 89.039 361.427 A 123.401 123.401 0 0 1 77 362.001 A 117.214 117.214 0 0 1 36.611 355.086 A 112.022 112.022 0 0 1 33.75 354.001 A 114.137 114.137 0 0 1 14.139 344.09 A 90.916 90.916 0 0 1 0 333.001 Z" vector-effect="non-scaling-stroke"/></g></svg>