<svg width="658.204" height="450.008" viewBox="0 0 658.204 450.008"
    xmlns="http://www.w3.org/2000/svg">
    <g id="svgGroup" stroke-linecap="round" fill-rule="evenodd" font-size="9pt" stroke="#000"
        stroke-width="0.25mm" fill="#000" style="stroke:#000;stroke-width:0.25mm;fill:#000">
        <path
            d="M 0.001 315.603 L 69.601 315.603 A 98.107 98.107 0 0 0 71.974 337.833 Q 75.924 354.82 86.447 366.774 A 61.858 61.858 0 0 0 88.801 369.303 A 63.444 63.444 0 0 0 121.045 386.691 A 94.641 94.641 0 0 0 141.601 388.803 A 94.832 94.832 0 0 0 163.447 386.43 A 63.386 63.386 0 0 0 194.401 369.603 Q 212.655 351.349 213.555 318.997 A 122.05 122.05 0 0 0 213.601 315.603 L 213.601 70.803 L 111.001 70.803 L 111.001 6.003 L 283.201 6.003 L 283.201 315.603 A 165.133 165.133 0 0 1 278.281 357.043 A 116.919 116.919 0 0 1 245.101 414.003 Q 207.001 450.003 141.601 450.003 A 190.202 190.202 0 0 1 98.148 445.321 A 127.281 127.281 0 0 1 38.101 413.703 A 120.381 120.381 0 0 1 2.383 344.909 A 172.948 172.948 0 0 1 0.001 315.603 Z"
            id="0" vector-effect="non-scaling-stroke" />
        <path
            d="M 385.201 321.603 L 385.201 128.403 A 156.948 156.948 0 0 1 388.651 94.733 A 119.05 119.05 0 0 1 402.001 60.003 Q 418.801 31.203 449.701 15.603 A 142.65 142.65 0 0 1 491.26 2.383 A 190.586 190.586 0 0 1 522.001 0.003 A 186.147 186.147 0 0 1 556.512 3.046 A 134.449 134.449 0 0 1 594.301 15.903 Q 624.601 31.803 641.401 60.303 A 118.967 118.967 0 0 1 655.839 100.263 A 160.671 160.671 0 0 1 658.201 128.403 L 588.601 128.403 A 96.406 96.406 0 0 0 586.772 109.001 Q 582.96 90.458 571.201 78.903 A 56.671 56.671 0 0 0 546.27 64.846 Q 537.452 62.373 526.942 61.91 A 112.116 112.116 0 0 0 522.001 61.803 A 95.024 95.024 0 0 0 502.016 63.777 Q 489.34 66.505 479.77 72.999 A 54.426 54.426 0 0 0 472.501 78.903 A 54.973 54.973 0 0 0 457.952 103.788 Q 454.801 114.734 454.801 128.403 L 454.801 321.603 A 91.665 91.665 0 0 0 456.799 341.343 Q 459.668 354.352 466.657 364.009 A 53.489 53.489 0 0 0 472.501 370.803 A 58.046 58.046 0 0 0 498.899 385.44 Q 508.027 387.857 518.869 388.159 A 112.461 112.461 0 0 0 522.001 388.203 A 93.187 93.187 0 0 0 541.742 386.239 Q 554.331 383.51 563.781 376.987 A 53.257 53.257 0 0 0 571.201 370.803 Q 588.601 353.403 588.601 321.603 L 658.201 321.603 Q 658.201 360.003 641.401 389.103 Q 624.601 418.203 594.301 434.103 Q 564.001 450.003 522.001 450.003 A 185.579 185.579 0 0 1 485.496 446.575 A 140.121 140.121 0 0 1 449.701 434.403 Q 418.801 418.803 402.001 389.703 Q 385.201 360.603 385.201 321.603 Z"
            id="1" vector-effect="non-scaling-stroke" />
    </g>
</svg>