<svg xmlns="http://www.w3.org/2000/svg" viewBox="0 0 400 400">
    <g fill="none" stroke="#000000" stroke-width="2">
        <path
            d="M254.07 51.27c-34.95-2.08-60.25-1.35-105.34-1.23q-.54 0-.65.53L85.07 349.51a.4.39-84 0 0 .38.48q49.72.05 99.39-.02c29.27-.04 61.93-1.22 79.65-28.48 8.05-12.39 12.58-31.72 15.81-46.73q11.67-54.21 23.15-108.47 7.24-34.19 9.82-51.79 1.54-10.52 1.74-16.5c.72-21.41-12.86-37.65-33.51-42.79q-12.18-3.03-27.43-3.94"
            vector-effect="non-scaling-stroke" />
        <path
            d="M234.29 126.26c3.99-19.4 1.05-25.24-19.15-24.77q-.53.01-.64.53L173.3 297.8q-.14.68.55.7c9.56.28 19.68-1.42 24.24-11.29 4.56-9.85 7.01-21.79 9.27-32.39q13.67-64.24 26.93-128.56"
            vector-effect="non-scaling-stroke" />
    </g>
    <path fill="#000000"
        d="M0 0h400v400H0V0Zm254.07 51.27c-34.95-2.08-60.25-1.35-105.34-1.23q-.54 0-.65.53L85.07 349.51a.4.39-84 0 0 .38.48q49.72.05 99.39-.02c29.27-.04 61.93-1.22 79.65-28.48 8.05-12.39 12.58-31.72 15.81-46.73q11.67-54.21 23.15-108.47 7.24-34.19 9.82-51.79 1.54-10.52 1.74-16.5c.72-21.41-12.86-37.65-33.51-42.79q-12.18-3.03-27.43-3.94Z" />
    <path fill="#fff"
        d="M254.07 51.27q15.25.91 27.43 3.94c20.65 5.14 34.23 21.38 33.51 42.79q-.2 5.98-1.74 16.5-2.58 17.6-9.82 51.79-11.48 54.26-23.15 108.47c-3.23 15.01-7.76 34.34-15.81 46.73-17.72 27.26-50.38 28.44-79.65 28.48q-49.67.07-99.39.02a.4.39-84 0 1-.38-.48l63.01-298.94q.11-.53.65-.53c45.09-.12 70.39-.85 105.34 1.23Zm-19.78 74.99c3.99-19.4 1.05-25.24-19.15-24.77q-.53.01-.64.53L173.3 297.8q-.14.68.55.7c9.56.28 19.68-1.42 24.24-11.29 4.56-9.85 7.01-21.79 9.27-32.39q13.67-64.24 26.93-128.56Z" />
    <path fill="#000000"
        d="M215.14 101.49c20.2-.47 23.14 5.37 19.15 24.77q-13.26 64.32-26.93 128.56c-2.26 10.6-4.71 22.54-9.27 32.39-4.56 9.87-14.68 11.57-24.24 11.29q-.69-.02-.55-.7l41.2-195.78q.11-.52.64-.53Z" />
</svg>