<svg version="1.1" xmlns="http://www.w3.org/2000/svg" xmlns:xlink="http://www.w3.org/1999/xlink" x="0px" y="0px" viewBox="-8 -8 126 126" style="enable-background:new 0 0 600 109.9;" xml:space="preserve"><script xmlns=""/>
<style type="text/css">
	.st0{fill:#ffffff;}
	.st1{fill:#E4002B;}
	.st2{fill:#BA0C2F;}
</style>
<polygon class="st2" points="62.2,43.2 75.2,34.6 75.2,56.4 80.2,61.4 59,82 54.8,82 54.8,43.2 "/>
<path class="st1" d="M47.6,43.2l-13.2-8.6v21.8l-4.8,5L50.8,82h4V43.2H47.6z"/>
<path class="st2" d="M18.4,95.8l7-9.8C8.2,69.6,7.6,42.4,24,25.4C37.2,11.6,58,8.2,74.8,17l7-9.8C55.6-7.8,22.2,1.4,7.2,27.8  C-5.6,50.2-1,78.6,18.4,95.8z"/>
<path class="st1" d="M91.4,14l-7.2,9.8c17,16.4,17.6,43.4,1.2,60.6c-13.2,13.8-33.8,17.2-50.8,8.4l-7,9.8c26.2,15,59.8,6,74.8-20.4  C115.4,59.6,110.8,31.2,91.4,14z"/>
</svg>